<?xml version="1.0" standalone="no"?><!DOCTYPE svg PUBLIC "-//W3C//DTD SVG 1.1//EN" "http://www.w3.org/Graphics/SVG/1.1/DTD/svg11.dtd"><svg t="1720867227971" class="icon" viewBox="0 0 1024 1024" version="1.1" xmlns="http://www.w3.org/2000/svg" p-id="5121" xmlns:xlink="http://www.w3.org/1999/xlink" width="200" height="200"><path d="M786.56 74.112l144 128 0.336 0.288c0.4 0.352 0.8 0.72 1.168 1.104l-1.488-1.392a40.544 40.544 0 0 1 9.696 12.992 37.296 37.296 0 0 1 1.36 3.296c0.8 2.192 1.392 4.48 1.792 6.832l0.16 0.96a30.096 30.096 0 0 1 0.368 3.888 42.72 42.72 0 0 1 0.048 1.92l-0.016 1.168-0.016 0.608L944 232a40.528 40.528 0 0 1-1.952 12.384 39.792 39.792 0 0 1-8.16 14.192l-0.288 0.32c-0.352 0.4-0.72 0.8-1.104 1.168l1.408-1.488a40.544 40.544 0 0 1-13.008 9.696 34.704 34.704 0 0 1-3.296 1.36 36.56 36.56 0 0 1-1.856 0.624l-0.4 0.112a35.84 35.84 0 0 1-2.176 0.576l-0.384 0.08c-0.672 0.16-1.344 0.288-2.016 0.4l-0.976 0.16a30.144 30.144 0 0 1-3.872 0.368 41.392 41.392 0 0 1-1.344 0.048H334.4C228.992 272 144 354.64 144 456a40 40 0 1 1-80 0C64 309.936 185.312 192 334.4 192h464.4l-65.376-58.096a40 40 0 0 1 53.152-59.792zM920 528a40 40 0 0 1 40 40C960 714.064 838.688 832 689.6 832H225.2l65.376 58.112a40 40 0 0 1-53.152 59.792l-144-128-0.32-0.304a40.24 40.24 0 0 1-1.168-1.104l1.488 1.408a40.544 40.544 0 0 1-9.696-13.008 37.408 37.408 0 0 1-1.344-3.296A39.408 39.408 0 0 1 80 792v-0.64l0.048-1.456L80 792a40.528 40.528 0 0 1 1.952-12.384 39.76 39.76 0 0 1 8.16-14.192l0.288-0.32c0.352-0.4 0.72-0.8 1.104-1.168l-1.392 1.488a40.544 40.544 0 0 1 12.992-9.696 39.312 39.312 0 0 1 5.152-1.984l0.4-0.112c0.72-0.208 1.44-0.4 2.176-0.576l0.384-0.08a33.92 33.92 0 0 1 2.016-0.4l0.96-0.16a29.408 29.408 0 0 1 3.744-0.368c0.592-0.032 1.184-0.048 1.792-0.048H689.6C795.008 752 880 669.36 880 568a40 40 0 0 1 40-40z" fill="#000000" p-id="5122"></path></svg>