<?xml version="1.0" standalone="no"?><!DOCTYPE svg PUBLIC "-//W3C//DTD SVG 1.1//EN" "http://www.w3.org/Graphics/SVG/1.1/DTD/svg11.dtd"><svg t="1721492784114" class="icon" viewBox="0 0 1024 1024" version="1.1" xmlns="http://www.w3.org/2000/svg" p-id="8888" xmlns:xlink="http://www.w3.org/1999/xlink" width="200" height="200"><path d="M512 512z m0 0z m448 0c0-61.866667-12.8-121.6-36.266667-177.066667-4.266667-10.666667-17.066667-14.933333-27.733333-10.666666-10.666667 4.266667-14.933333 17.066667-10.666667 27.733333 21.333333 51.2 32 104.533333 32 160 0 224-181.333333 405.333333-405.333333 405.333333S106.666667 736 106.666667 512 288 106.666667 512 106.666667c91.733333 0 177.066667 29.866667 247.466667 85.333333 8.533333 6.4 23.466667 6.4 29.866666-4.266667 6.4-8.533333 6.4-23.466667-4.266666-29.866666C708.266667 96 612.266667 64 512 64 264.533333 64 64 264.533333 64 512s200.533333 448 448 448 448-200.533333 448-448z m-108.8-294.4c-17.066667 0-32 14.933333-32 32s14.933333 32 32 32 32-14.933333 32-32-14.933333-32-32-32zM640 661.333333V362.666667c0-12.8-8.533333-21.333333-21.333333-21.333334s-21.333333 8.533333-21.333334 21.333334v298.666666c0 12.8 8.533333 21.333333 21.333334 21.333334s21.333333-8.533333 21.333333-21.333334z m-213.333333 0V362.666667c0-12.8-8.533333-21.333333-21.333334-21.333334s-21.333333 8.533333-21.333333 21.333334v298.666666c0 12.8 8.533333 21.333333 21.333333 21.333334s21.333333-8.533333 21.333334-21.333334z" fill="#2c2c2c" p-id="8889"></path></svg>