<?xml version="1.0" standalone="no"?><!DOCTYPE svg PUBLIC "-//W3C//DTD SVG 1.1//EN" "http://www.w3.org/Graphics/SVG/1.1/DTD/svg11.dtd"><svg t="1720867257363" class="icon" viewBox="0 0 1024 1024" version="1.1" xmlns="http://www.w3.org/2000/svg" p-id="6111" xmlns:xlink="http://www.w3.org/1999/xlink" width="200" height="200"><path d="M384.512 592.19437a577.801481 577.801481 0 0 0 31.137185 52.92563A508.757333 508.757333 0 0 1 18.962963 834.37037v-56.888889a451.602963 451.602963 0 0 0 365.549037-185.287111zM1023.867259 227.555556L833.554963 132.740741v62.217481a508.09363 508.09363 0 0 0-324.228741 183.921778c11.131259 17.066667 21.731556 34.550519 31.137185 52.92563a451.147852 451.147852 0 0 1 293.091556-179.351704V322.37037l190.312296-94.814814z m0 568.888888l-190.312296-94.814814v69.935407a450.863407 450.863407 0 0 1-344.746667-270.563556C409.201778 311.845926 224.786963 189.62963 18.962963 189.62963v56.888889c182.765037 0 346.510222 108.525037 417.185185 276.48a507.866074 507.866074 0 0 0 397.406815 306.138074V891.259259l190.312296-94.814815z" fill="#000000" fill-opacity=".9" p-id="6112"></path></svg>